<?xml version="1.0" encoding="utf-8"?>
<!-- Generator: Adobe Illustrator 26.2.1, SVG Export Plug-In . SVG Version: 6.00 Build 0)  -->
<svg version="1.1" xmlns="http://www.w3.org/2000/svg" xmlns:xlink="http://www.w3.org/1999/xlink" x="0px" y="0px"
	 viewBox="0 0 500 500" style="enable-background:new 0 0 500 500;" xml:space="preserve">
<style type="text/css">
	.st0{fill:#E0E0E0;}
	.st1{display:none;fill:#E0E0E0;}
	.st2{display:none;}
	.st3{display:inline;}
	.st4{fill:#37474F;}
	.st5{fill:#455A64;}
	.st6{fill:#A81600;}
	.st7{opacity:0.4;}
	.st8{opacity:0.3;}
	.st9{opacity:0.55;}
	.st10{fill:#FFFFFF;}
	.st11{font-family:'Rubik-Bold';}
	.st12{font-size:9.6825px;}
	.st13{fill:#27DEBF;}
	.st14{opacity:0.15;}
	.st15{fill:#EBEBEB;}
	.st16{fill:#263238;}
	.st17{opacity:0.96;fill:#FFFFFF;}
	.st18{fill:#363636;}
	.st19{opacity:0.8;fill:#FFFFFF;}
	.st20{opacity:0.75;fill:#FFFFFF;}
	.st21{opacity:0.9;fill:#FFFFFF;}
	.st22{opacity:0.65;fill:#FFFFFF;}
	.st23{opacity:0.35;}
	.st24{opacity:0.5;}
	.st25{opacity:0.2;}
	.st26{display:inline;fill:#27DEBF;}
	.st27{display:inline;opacity:0.6;fill:#FFFFFF;}
	.st28{display:inline;opacity:0.8;}
</style>
<g id="Floor">
</g>
<g id="Shadows">
	<path id="Shadow_4_" class="st0" d="M175.35,458.19L21.11,369.14c-3.38-1.95-3.38-5.11,0-7.07L304.64,199.1
		c3.38-1.95,8.86-1.95,12.24,0l154.24,89.05c3.38,1.95,3.38,5.12,0,7.07L187.59,458.19C184.21,460.14,178.73,460.14,175.35,458.19z"
		/>
	<path id="Shadow" class="st1" d="M431.99,464.64c-0.73,0-2.11-0.24-3.25-1.83l-25.52-35.78c-1.36-1.9-0.8-3.48-0.49-4.07
		c0.6-1.17,1.81-1.87,3.22-1.87c0.37,0,0.77,0.05,1.17,0.14l63.68,15.14c3.06,0.73,3.12,2.89,3.07,3.53
		c-0.05,0.64-0.48,2.76-3.62,2.96l-31.46,2.02l-3.16,16.43C435.16,463.77,433.38,464.64,431.99,464.64
		C431.99,464.64,431.99,464.64,431.99,464.64z"/>
</g>
<g id="Signal_1_" class="st2">
	<g id="Signal" class="st3">
		<g id="XMLID_2426_">
			<path class="st4" d="M314.47,107.61c-0.02-0.48-0.34-0.97-0.98-1.34c-1.31-0.76-3.45-0.76-4.76,0c-0.64,0.37-0.96,0.85-0.98,1.34
				h-0.01v154.17h6.73L314.47,107.61L314.47,107.61z"/>
		</g>
		<path class="st5" d="M314.47,107.61c0-1.05-1.51-1.91-3.36-1.91c-1.86,0-3.36,0.85-3.36,1.91c0,1.05,1.51,1.91,3.36,1.91
			C312.97,109.52,314.47,108.66,314.47,107.61z"/>
		<g>
			<g id="XMLID_2425_">
				<polygon class="st6" points="330.42,141.43 286.53,116.07 279.93,119.88 286.53,131.31 330.42,156.68 				"/>
			</g>
			<g id="XMLID_2429_" class="st7">
				<polygon points="330.42,141.43 286.53,116.07 279.93,119.88 286.53,131.31 330.42,156.68 				"/>
			</g>
			<g id="XMLID_2424_">
				<polygon class="st6" points="286.53,116.07 289.83,114.16 333.79,139.56 330.42,141.43 				"/>
			</g>
			<g id="XMLID_2427_" class="st8">
				<polygon points="286.53,116.07 289.83,114.16 333.79,139.56 330.42,141.43 				"/>
			</g>
			<polygon class="st6" points="333.79,154.81 330.42,156.68 330.42,141.43 333.79,139.56 			"/>
			<polygon class="st9" points="333.79,154.81 330.42,156.68 330.42,141.43 333.79,139.56 			"/>
		</g>
		<text transform="matrix(0.6495 0.375 0 1 288.8994 128.0878)" class="st10 st11 st12">HOLIDAZE</text>
	</g>
</g>
<g id="Plants">
	<g id="Plants_00000160176514354153124220000006634409412954418592_">
		<g id="XMLID_00000091719847351354914760000002154397251384095376_">
			<g id="XMLID_00000084510696316501975310000011834139799750866827_">
				<path id="XMLID_00000169545048854533636270000010985116666692431260_" class="st13" d="M51.56,338.13l5.38-4.63
					c0,0-0.21-16.55-5.06-29.88c-6.81-18.73-21.27-22.83-25.67-19.98c-4.4,2.85-4.41,8.79,6.39,18.28
					C38.97,307.52,48.23,320.17,51.56,338.13z"/>
			</g>
			<g id="XMLID_00000170243990319774287420000003759380716966631593_" class="st14">
				<path id="XMLID_00000176754133776931012130000008578351524181437839_" d="M51.56,338.13l5.38-4.63c0,0-0.21-16.55-5.06-29.88
					c-6.81-18.73-21.27-22.83-25.67-19.98c-4.4,2.85-4.41,8.79,6.39,18.28C38.97,307.52,48.23,320.17,51.56,338.13z"/>
			</g>
			<g id="XMLID_00000010299821581767625810000010549170029081253277_">
				<path id="XMLID_00000129896582534998626030000016655555644881097380_" class="st10" d="M52.26,330.03
					c-0.02,0-0.04,0.01-0.06,0.01c-0.24,0.01-0.45-0.17-0.46-0.41c-1.02-18.58-12.16-36.98-21.89-43.38
					c-0.2-0.13-0.26-0.41-0.13-0.61c0.13-0.2,0.41-0.26,0.61-0.13c9.91,6.51,21.24,25.21,22.28,44.06
					C52.63,329.8,52.47,329.99,52.26,330.03z"/>
			</g>
		</g>
		<g id="XMLID_00000017500427252616216960000002680701925499958922_">
			<g id="XMLID_00000155129316355352135800000004900652656184274573_">
				<path id="XMLID_00000096763201665261596420000000782021002329439670_" class="st13" d="M35.72,351.1
					c-0.85,0.73-3.05-0.08-3.91-0.44c-1.46-0.62-2.75-1.64-3.71-2.89c-1.12-1.46-1.66-3.15-1.76-4.99
					c-0.05-0.95,0.03-1.91,0.12-2.86c0.08-0.93,0.16-1.87,0.25-2.8c0.08-0.92,0.16-1.87-0.13-2.75c-0.58-1.77-2.44-2.72-4.12-3.53
					c-1.85-0.9-3.85-2.17-4.26-4.35c-0.32-1.68,0.25-3.42,1.03-4.94c0.79-1.52,1.8-2.93,2.47-4.51c0.48-1.14,0.78-2.42,0.44-3.6
					c-0.21-0.74-0.66-1.38-1.15-1.97c-1.05-1.27-2.32-2.37-3.15-3.8c-0.83-1.42-1.12-3.34-0.14-4.66c0.8-1.09,2.23-1.49,3.57-1.66
					c1.24-0.16,2.54,0.16,3.73,0.55c3.84,1.25,6.61,4.97,10.58,5.74c1.53,0.3,3.11,0.12,4.66,0.22c1.55,0.1,3.21,0.56,4.16,1.8
					c1.87,2.43,0.02,6.24,1.52,8.92c1.33,2.37,3.98,2.86,5.81,4.87c0.8,0.88,1.16,2.01,1.29,3.19c0.22,2,0.21,3.5-0.31,5.87
					c-0.43,1.96-2.09,5.64-2.09,5.64C50.57,338.2,35.85,350.98,35.72,351.1z"/>
			</g>
			<g id="XMLID_00000063609873514526897060000009520566550119322534_">
				<path id="XMLID_00000144338471382338567280000002488601394881279665_" class="st10" d="M44.52,343.95c-0.01,0-0.01,0-0.01,0
					c-0.25,0.04-0.47-0.13-0.51-0.37c-2.62-17.26-14.37-34.6-21.31-38.95c-0.21-0.13-0.27-0.4-0.14-0.61
					c0.13-0.21,0.4-0.27,0.61-0.14c7.08,4.44,19.05,22.05,21.71,39.56C44.91,343.69,44.75,343.91,44.52,343.95z"/>
			</g>
			<g id="XMLID_00000074428385974701740380000000805022816803581365_">
				<path id="XMLID_00000079444297372164421120000008010462847107172287_" class="st10" d="M38.02,324.22
					c-0.04,0.01-0.09,0.01-0.13,0.01c-5.83-0.63-12.75,0.41-12.82,0.42c-0.24,0.04-0.46-0.13-0.5-0.37
					c-0.04-0.24,0.11-0.46,0.37-0.5c0.07-0.01,7.1-1.06,13.04-0.42c0.24,0.03,0.42,0.24,0.39,0.48
					C38.35,324.03,38.2,324.18,38.02,324.22z"/>
			</g>
		</g>
	</g>
</g>
<g id="Clouds_1_">
	<g id="Clouds_2_">
		<path id="Cloud_2_" class="st15" d="M331.96,137.31l5,2.89c-0.02-0.22-0.04-0.44-0.04-0.66v-1.45c0-2.58,1.81-3.62,4.04-2.33
			c0.9,0.52,1.74,1.35,2.41,2.32c0.37-3.24,2.91-4.45,6-2.66c3.34,1.93,6.05,6.62,6.05,10.47v2.17c0,1-0.18,1.84-0.51,2.51l4.15,2.4
			c1.24,0.71,2.24,2.45,2.24,3.88c0,1.43-1,2.01-2.24,1.29l-27.09-15.64c-1.24-0.71-2.24-2.45-2.24-3.88
			C329.72,137.18,330.72,136.6,331.96,137.31z"/>
		<path id="Cloud_1_" class="st15" d="M311.19,150.19l3.66,2.12c-0.02-0.16-0.03-0.33-0.03-0.49v-1.06c0-1.89,1.33-2.66,2.96-1.71
			c0.66,0.38,1.27,0.99,1.77,1.7c0.27-2.38,2.13-3.26,4.4-1.95c2.45,1.41,4.43,4.85,4.43,7.68v1.59c0,0.73-0.14,1.35-0.38,1.84
			l3.04,1.76c0.91,0.52,1.64,1.8,1.64,2.85c0,1.05-0.74,1.47-1.64,0.95l-19.86-11.47c-0.91-0.52-1.64-1.8-1.64-2.85
			C309.54,150.09,310.28,149.67,311.19,150.19z"/>
	</g>
</g>
<g id="Device_2_">
	<g id="Device_00000174601073349773863300000017138621963922055323_">
		<g id="Device_00000106863880198256107260000010631868077916625290_">
			<path id="XMLID_00000095313235389852456530000017946045992169793435_" class="st5" d="M34.66,341.86
				c-2.13,1.65-1.9,3.99,0.68,5.47l141.19,81.52c2.84,1.63,7.44,1.63,10.27-0.01l269.83-155.78c2.61-1.51,2.82-3.88,0.6-5.52
				c2.55,1.81,4.53,5.45,4.53,8.5l0.01,6.79c0.01,3.27-2.29,7.26-5.13,8.9L186.82,447.5c-2.84,1.64-7.45,1.64-10.28,0L35.35,365.99
				c-2.84-1.63-5.14-5.61-5.14-8.89l-0.01-6.8C30.2,347.29,32.14,343.69,34.66,341.86z"/>
			<path id="XMLID_00000111173766803206291330000006076523909923337386_" class="st4" d="M35.34,347.33l141.19,81.52
				c2.84,1.63,7.44,1.63,10.27-0.01l269.83-155.78c2.83-1.64,2.84-4.3,0-5.92l-141.19-81.52c-2.84-1.63-7.44-1.63-10.27,0.01
				L35.34,341.41C32.51,343.04,32.5,345.7,35.34,347.33z"/>
			<path id="XMLID_00000117635077943860866790000017659280194080579235_" class="st16" d="M457.22,267.54
				c2.55,1.81,4.53,5.45,4.53,8.5l0.01,6.79c0,3.28-2.29,7.26-5.13,8.9L186.82,447.5c-1.42,0.82-3.29,1.23-5.15,1.23l-0.01-18.66
				c1.86,0,3.73-0.41,5.14-1.23l269.83-155.78C459.23,271.55,459.44,269.18,457.22,267.54z"/>
			<path id="XMLID_00000054952902884411997290000008908125641285036191_" d="M387.6,240.62c-1.44-0.83-1.44-2.18,0-3.01
				c1.44-0.83,3.78-0.83,5.22,0c1.44,0.83,1.44,2.18,0,3.01C391.38,241.45,389.04,241.45,387.6,240.62z"/>
			<path id="XMLID_00000085221521229466605080000002353626378148523670_" d="M380.53,236.06l-20.15-11.63
				c-1.2-0.69-1.26-1.78-0.13-2.44c1.13-0.65,3.02-0.62,4.22,0.08l20.15,11.63c1.2,0.69,1.26,1.78,0.13,2.44
				C383.63,236.79,381.74,236.76,380.53,236.06z"/>
			<path id="XMLID_00000144296179721832642320000012601307925401307523_" class="st13" d="M296.03,198.12
				c2.42-1.4,4.95-0.59,7.38,0.82l131.96,76.14c2.42,1.4,2.43,3.68,0,5.08l-239.49,138.3c-2.44,1.41-6.38,1.4-8.81,0L55.12,342.32
				c-2.44-1.4-2.43-3.68-0.01-5.08L296.03,198.12z"/>
			<path id="XMLID_00000051361504280431945650000014483346674172611238_" class="st17" d="M296.03,198.12
				c2.42-1.4,4.95-0.59,7.38,0.82l131.96,76.14c2.42,1.4,2.43,3.68,0,5.08l-239.49,138.3c-2.44,1.41-6.38,1.4-8.81,0L55.12,342.32
				c-2.44-1.4-2.43-3.68-0.01-5.08L296.03,198.12z"/>
		</g>
	</g>
	<g class="st7">
		<path class="st18" d="M191.47,416.22l-49.71-28.7l8.35-2.41c26.43-7.63,54.82-4.17,78.64,9.58h0L191.47,416.22z"/>
		<path class="st18" d="M133.18,382.57l-74.27-42.88l49.71-28.7l29.33,70.2C136.42,381.63,134.83,382.1,133.18,382.57z"/>
		<path class="st18" d="M116.91,306.21l29,72.69c17.14-5.44,32.52-6.27,50.13-3.23l-27.99-68.95l-40.69-6.54L116.91,306.21z"/>
		<path class="st18" d="M208.86,378.45l-10.16-25.02l78.93-9.35l13.25,14.74l-55,31.75C227.43,385.4,218.44,381.27,208.86,378.45z"
			/>
		<polygon class="st18" points="158.17,282.41 133.48,296.64 166.09,301.91 		"/>
		<path class="st18" d="M321.96,285.88c-3.43-1.98-9-1.98-12.43,0c-3.43,1.98-3.43,5.19,0,7.17c3.43,1.98,9,1.98,12.43,0
			C325.39,291.07,325.39,287.86,321.96,285.88z"/>
		<path class="st18" d="M180.28,307.21l122.09-14.47c1.29,2.93,3.49,3.6,8.62,4.72l-34.06,38.95l-81.23,9.63L180.28,307.21z"/>
		<path class="st18" d="M238.3,270.37l8.97,21.75l55.5-6.58c1.05-1.2,2.67-2.21,4.76-3.07l-7.61-19.4L238.3,270.37z"/>
		<polygon class="st18" points="167.64,276.92 177.18,300.43 237.98,293.22 228.42,269.71 		"/>
		<polygon class="st18" points="179.05,270.34 279.76,212.19 297.2,256.32 		"/>
		<path class="st18" d="M323.11,296.77l-37.19,42.53l13.25,14.74l71.89-41.51L326.7,295.1C325.55,295.8,324.36,296.37,323.11,296.77
			z"/>
		<polygon class="st18" points="305.38,255.35 286.75,208.15 299.17,200.98 378.35,246.69 		"/>
		<path class="st18" d="M388.95,252.7l42.78,24.81l-53.85,31.09l-47.51-18.72c0.11-2.27-0.98-4.47-4.48-6.51
			c-2.86-1.65-6.43-2.27-10.38-2.36l-7.42-18.91L388.95,252.7z"/>
	</g>
	<g id="City_00000179641077653271178220000000143421285041742491_">
		<g>
			<polygon class="st13" points="293.05,253.73 293.05,238.93 270.18,241.64 270.18,256.44 			"/>
			<polygon class="st13" points="270.18,241.64 265.46,228.45 265.46,244.78 270.18,256.44 			"/>
			<polygon class="st13" points="265.46,228.45 287.84,225.76 293.05,238.93 270.18,241.64 			"/>
			<polygon class="st19" points="293.05,253.73 293.05,238.93 270.18,241.64 270.18,256.44 			"/>
			<polygon class="st20" points="270.18,241.64 265.46,228.45 265.46,244.78 270.18,256.44 			"/>
			<polygon class="st21" points="265.46,228.45 287.84,225.76 293.05,238.93 270.18,241.64 			"/>
		</g>
		<g>
			<polygon class="st13" points="278.05,285.36 278.05,278.73 255.18,281.43 255.18,288.07 			"/>
			<polygon class="st13" points="255.18,281.43 251.1,270 251.1,278.16 255.18,288.07 			"/>
			<polygon class="st13" points="251.1,270 273.48,267.3 278.05,278.73 255.18,281.43 			"/>
			<polygon class="st19" points="278.05,285.36 278.05,278.73 255.18,281.43 255.18,288.07 			"/>
			<polygon class="st20" points="255.18,281.43 251.1,270 251.1,278.16 255.18,288.07 			"/>
			<polygon class="st21" points="251.1,270 273.48,267.3 278.05,278.73 255.18,281.43 			"/>
		</g>
		<g>
			<polygon class="st13" points="234.01,372.67 234.01,357.87 211.13,360.57 211.13,375.38 			"/>
			<polygon class="st13" points="211.13,360.57 206.42,347.39 206.42,363.72 211.13,375.38 			"/>
			<polygon class="st13" points="206.42,347.39 228.8,344.69 234.01,357.87 211.13,360.57 			"/>
			<polygon class="st19" points="234.01,372.67 234.01,357.87 211.13,360.57 211.13,375.38 			"/>
			<polygon class="st20" points="211.13,360.57 206.42,347.39 206.42,363.72 211.13,375.38 			"/>
			<polygon class="st21" points="206.42,347.39 228.8,344.69 234.01,357.87 211.13,360.57 			"/>
		</g>
		<g>
			<polygon class="st13" points="234.4,260.4 234.4,254.95 222.82,256.32 222.82,261.77 			"/>
			<polygon class="st13" points="222.82,256.32 220.44,249.64 220.44,255.87 222.82,261.77 			"/>
			<polygon class="st13" points="220.44,249.64 231.76,248.28 234.4,254.95 222.82,256.32 			"/>
			<polygon class="st19" points="234.4,260.4 234.4,254.95 222.82,256.32 222.82,261.77 			"/>
			<polygon class="st20" points="222.82,256.32 220.44,249.64 220.44,255.87 222.82,261.77 			"/>
			<polygon class="st21" points="220.44,249.64 231.76,248.28 234.4,254.95 222.82,256.32 			"/>
		</g>
		<g>
			<polygon class="st13" points="318.78,234.68 318.78,226.74 301.94,228.73 301.94,236.67 			"/>
			<polygon class="st13" points="301.94,228.73 298.47,219.03 298.47,228.09 301.94,236.67 			"/>
			<polygon class="st13" points="298.47,219.03 314.94,217.04 318.78,226.74 301.94,228.73 			"/>
			<polygon class="st19" points="318.78,234.68 318.78,226.74 301.94,228.73 301.94,236.67 			"/>
			<polygon class="st20" points="301.94,228.73 298.47,219.03 298.47,228.09 301.94,236.67 			"/>
			<polygon class="st21" points="298.47,219.03 314.94,217.04 318.78,226.74 301.94,228.73 			"/>
		</g>
		<g>
			<polygon class="st13" points="232.38,291.3 232.38,284.23 217.37,286 217.37,293.08 			"/>
			<polygon class="st13" points="217.37,286 214.27,277.35 214.27,285.43 217.37,293.08 			"/>
			<polygon class="st13" points="214.27,277.35 228.96,275.58 232.38,284.23 217.37,286 			"/>
			<polygon class="st19" points="232.38,291.3 232.38,284.23 217.37,286 217.37,293.08 			"/>
			<polygon class="st20" points="217.37,286 214.27,277.35 214.27,285.43 217.37,293.08 			"/>
			<polygon class="st21" points="214.27,277.35 228.96,275.58 232.38,284.23 217.37,286 			"/>
		</g>
		<g>
			<polygon class="st13" points="300.51,282.86 300.51,275.58 285.06,277.41 285.06,284.68 			"/>
			<polygon class="st13" points="285.06,277.41 281.87,268.5 281.87,276.81 285.06,284.68 			"/>
			<polygon class="st13" points="281.87,268.5 296.99,266.68 300.51,275.58 285.06,277.41 			"/>
			<polygon class="st19" points="300.51,282.86 300.51,275.58 285.06,277.41 285.06,284.68 			"/>
			<polygon class="st20" points="285.06,277.41 281.87,268.5 281.87,276.81 285.06,284.68 			"/>
			<polygon class="st21" points="281.87,268.5 296.99,266.68 300.51,275.58 285.06,277.41 			"/>
		</g>
		<g>
			<polygon class="st13" points="212.96,293.54 212.96,286.46 197.94,288.24 197.94,295.32 			"/>
			<polygon class="st13" points="197.94,288.24 194.85,279.59 194.85,287.66 197.94,295.32 			"/>
			<polygon class="st13" points="194.85,279.59 209.54,277.82 212.96,286.46 197.94,288.24 			"/>
			<polygon class="st19" points="212.96,293.54 212.96,286.46 197.94,288.24 197.94,295.32 			"/>
			<polygon class="st20" points="197.94,288.24 194.85,279.59 194.85,287.66 197.94,295.32 			"/>
			<polygon class="st21" points="194.85,279.59 209.54,277.82 212.96,286.46 197.94,288.24 			"/>
		</g>
		<g>
			<polygon class="st13" points="193.53,295.78 193.53,288.7 178.51,290.48 178.51,297.55 			"/>
			<polygon class="st13" points="178.51,290.48 175.42,281.82 175.42,289.9 178.51,297.55 			"/>
			<polygon class="st13" points="175.42,281.82 190.11,280.05 193.53,288.7 178.51,290.48 			"/>
			<polygon class="st19" points="193.53,295.78 193.53,288.7 178.51,290.48 178.51,297.55 			"/>
			<polygon class="st20" points="178.51,290.48 175.42,281.82 175.42,289.9 178.51,297.55 			"/>
			<polygon class="st21" points="175.42,281.82 190.11,280.05 193.53,288.7 178.51,290.48 			"/>
		</g>
		<g>
			<polygon class="st13" points="373.22,272.17 373.22,265.09 358.21,266.87 358.21,273.95 			"/>
			<polygon class="st13" points="358.21,266.87 355.11,258.22 355.11,266.29 358.21,273.95 			"/>
			<polygon class="st13" points="355.11,258.22 369.81,256.44 373.22,265.09 358.21,266.87 			"/>
			<polygon class="st19" points="373.22,272.17 373.22,265.09 358.21,266.87 358.21,273.95 			"/>
			<polygon class="st20" points="358.21,266.87 355.11,258.22 355.11,266.29 358.21,273.95 			"/>
			<polygon class="st21" points="355.11,258.22 369.81,256.44 373.22,265.09 358.21,266.87 			"/>
		</g>
		<g>
			<polygon class="st13" points="353.8,274.41 353.8,267.33 338.78,269.11 338.78,276.18 			"/>
			<polygon class="st13" points="338.78,269.11 335.69,260.45 335.69,268.53 338.78,276.18 			"/>
			<polygon class="st13" points="335.69,260.45 350.38,258.68 353.8,267.33 338.78,269.11 			"/>
			<polygon class="st19" points="353.8,274.41 353.8,267.33 338.78,269.11 338.78,276.18 			"/>
			<polygon class="st20" points="338.78,269.11 335.69,260.45 335.69,268.53 338.78,276.18 			"/>
			<polygon class="st21" points="335.69,260.45 350.38,258.68 353.8,267.33 338.78,269.11 			"/>
		</g>
		<g>
			<polygon class="st13" points="334.37,276.64 334.37,269.57 319.35,271.35 319.35,278.42 			"/>
			<polygon class="st13" points="319.35,271.35 316.26,262.69 316.26,270.77 319.35,278.42 			"/>
			<polygon class="st13" points="316.26,262.69 330.95,260.92 334.37,269.57 319.35,271.35 			"/>
			<polygon class="st19" points="334.37,276.64 334.37,269.57 319.35,271.35 319.35,278.42 			"/>
			<polygon class="st20" points="319.35,271.35 316.26,262.69 316.26,270.77 319.35,278.42 			"/>
			<polygon class="st21" points="316.26,262.69 330.95,260.92 334.37,269.57 319.35,271.35 			"/>
		</g>
		<g>
			<g>
				<polygon class="st13" points="140.49,249.46 140.49,245.25 127.76,246.75 127.76,250.96 				"/>
				<polygon class="st19" points="140.49,249.46 140.49,245.25 127.76,246.75 127.76,250.96 				"/>
				<polygon class="st13" points="127.76,246.75 125.89,241.29 125.89,246.41 127.76,250.96 				"/>
				<polygon class="st20" points="127.76,246.75 125.89,241.29 125.89,246.41 127.76,250.96 				"/>
				<polygon class="st13" points="125.89,241.29 138.34,239.8 140.49,245.25 127.76,246.75 				"/>
				<polygon class="st21" points="125.89,241.29 138.34,239.8 140.49,245.25 127.76,246.75 				"/>
			</g>
		</g>
		<g>
			<polygon class="st13" points="230.75,338.53 230.75,331.45 215.73,333.23 215.73,340.31 			"/>
			<polygon class="st13" points="215.73,333.23 212.63,324.57 212.63,332.65 215.73,340.31 			"/>
			<polygon class="st13" points="212.63,324.57 227.33,322.8 230.75,331.45 215.73,333.23 			"/>
			<polygon class="st19" points="230.75,338.53 230.75,331.45 215.73,333.23 215.73,340.31 			"/>
			<polygon class="st20" points="215.73,333.23 212.63,324.57 212.63,332.65 215.73,340.31 			"/>
			<polygon class="st21" points="212.63,324.57 227.33,322.8 230.75,331.45 215.73,333.23 			"/>
		</g>
		<g>
			<polygon class="st13" points="212,340.76 212,333.69 196.99,335.46 196.99,342.54 			"/>
			<polygon class="st13" points="196.99,335.46 193.89,326.81 193.89,334.89 196.99,342.54 			"/>
			<polygon class="st13" points="193.89,326.81 208.59,325.03 212,333.69 196.99,335.46 			"/>
			<polygon class="st19" points="212,340.76 212,333.69 196.99,335.46 196.99,342.54 			"/>
			<polygon class="st20" points="196.99,335.46 193.89,326.81 193.89,334.89 196.99,342.54 			"/>
			<polygon class="st21" points="193.89,326.81 208.59,325.03 212,333.69 196.99,335.46 			"/>
		</g>
		<g>
			<polygon class="st13" points="278.19,362.24 278.19,355.17 263.17,356.94 263.17,364.02 			"/>
			<polygon class="st13" points="263.17,356.94 260.07,348.29 260.07,356.37 263.17,364.02 			"/>
			<polygon class="st13" points="260.07,348.29 274.77,346.51 278.19,355.17 263.17,356.94 			"/>
			<polygon class="st19" points="278.19,362.24 278.19,355.17 263.17,356.94 263.17,364.02 			"/>
			<polygon class="st20" points="263.17,356.94 260.07,348.29 260.07,356.37 263.17,364.02 			"/>
			<polygon class="st21" points="260.07,348.29 274.77,346.51 278.19,355.17 263.17,356.94 			"/>
		</g>
		<g>
			<polygon class="st13" points="259.44,364.48 259.44,357.4 244.42,359.18 244.42,366.25 			"/>
			<polygon class="st13" points="244.42,359.18 241.33,350.52 241.33,358.6 244.42,366.25 			"/>
			<polygon class="st13" points="241.33,350.52 256.03,348.75 259.44,357.4 244.42,359.18 			"/>
			<polygon class="st19" points="259.44,364.48 259.44,357.4 244.42,359.18 244.42,366.25 			"/>
			<polygon class="st20" points="244.42,359.18 241.33,350.52 241.33,358.6 244.42,366.25 			"/>
			<polygon class="st21" points="241.33,350.52 256.03,348.75 259.44,357.4 244.42,359.18 			"/>
		</g>
		<g>
			<polygon class="st13" points="145.49,328.65 145.49,321.57 130.47,323.35 130.47,330.42 			"/>
			<polygon class="st13" points="130.47,323.35 127.38,314.69 127.38,322.77 130.47,330.42 			"/>
			<polygon class="st13" points="127.38,314.69 142.07,312.92 145.49,321.57 130.47,323.35 			"/>
			<polygon class="st19" points="145.49,328.65 145.49,321.57 130.47,323.35 130.47,330.42 			"/>
			<polygon class="st20" points="130.47,323.35 127.38,314.69 127.38,322.77 130.47,330.42 			"/>
			<polygon class="st21" points="127.38,314.69 142.07,312.92 145.49,321.57 130.47,323.35 			"/>
		</g>
		<g>
			<polygon class="st13" points="151.38,343.23 151.38,336.15 136.36,337.93 136.36,345.01 			"/>
			<polygon class="st13" points="136.36,337.93 133.27,329.27 133.27,337.35 136.36,345.01 			"/>
			<polygon class="st13" points="133.27,329.27 147.96,327.5 151.38,336.15 136.36,337.93 			"/>
			<polygon class="st19" points="151.38,343.23 151.38,336.15 136.36,337.93 136.36,345.01 			"/>
			<polygon class="st20" points="136.36,337.93 133.27,329.27 133.27,337.35 136.36,345.01 			"/>
			<polygon class="st21" points="133.27,329.27 147.96,327.5 151.38,336.15 136.36,337.93 			"/>
		</g>
		<g>
			<polygon class="st13" points="157.27,357.81 157.27,350.73 142.25,352.51 142.25,359.59 			"/>
			<polygon class="st13" points="142.25,352.51 139.16,343.85 139.16,351.93 142.25,359.59 			"/>
			<polygon class="st13" points="139.16,343.85 153.85,342.08 157.27,350.73 142.25,352.51 			"/>
			<polygon class="st19" points="157.27,357.81 157.27,350.73 142.25,352.51 142.25,359.59 			"/>
			<polygon class="st20" points="142.25,352.51 139.16,343.85 139.16,351.93 142.25,359.59 			"/>
			<polygon class="st21" points="139.16,343.85 153.85,342.08 157.27,350.73 142.25,352.51 			"/>
		</g>
		<g>
			<polygon class="st13" points="163.16,372.39 163.16,365.32 148.15,367.09 148.15,374.17 			"/>
			<polygon class="st13" points="148.15,367.09 145.05,358.44 145.05,366.52 148.15,374.17 			"/>
			<polygon class="st13" points="145.05,358.44 159.75,356.66 163.16,365.32 148.15,367.09 			"/>
			<polygon class="st19" points="163.16,372.39 163.16,365.32 148.15,367.09 148.15,374.17 			"/>
			<polygon class="st20" points="148.15,367.09 145.05,358.44 145.05,366.52 148.15,374.17 			"/>
			<polygon class="st21" points="145.05,358.44 159.75,356.66 163.16,365.32 148.15,367.09 			"/>
		</g>
		<g>
			<polygon class="st13" points="170.98,325.68 170.98,318.6 155.96,320.38 155.96,327.46 			"/>
			<polygon class="st13" points="155.96,320.38 152.87,311.73 152.87,319.8 155.96,327.46 			"/>
			<polygon class="st13" points="152.87,311.73 167.56,309.95 170.98,318.6 155.96,320.38 			"/>
			<polygon class="st19" points="170.98,325.68 170.98,318.6 155.96,320.38 155.96,327.46 			"/>
			<polygon class="st20" points="155.96,320.38 152.87,311.73 152.87,319.8 155.96,327.46 			"/>
			<polygon class="st21" points="152.87,311.73 167.56,309.95 170.98,318.6 155.96,320.38 			"/>
		</g>
		<g>
			<polygon class="st13" points="176.87,340.26 176.87,333.19 161.85,334.96 161.85,342.04 			"/>
			<polygon class="st13" points="161.85,334.96 158.76,326.31 158.76,334.39 161.85,342.04 			"/>
			<polygon class="st13" points="158.76,326.31 173.45,324.54 176.87,333.19 161.85,334.96 			"/>
			<polygon class="st19" points="176.87,340.26 176.87,333.19 161.85,334.96 161.85,342.04 			"/>
			<polygon class="st20" points="161.85,334.96 158.76,326.31 158.76,334.39 161.85,342.04 			"/>
			<polygon class="st21" points="158.76,326.31 173.45,324.54 176.87,333.19 161.85,334.96 			"/>
		</g>
		<g>
			<polygon class="st13" points="182.76,354.85 182.76,347.77 167.75,349.55 167.75,356.62 			"/>
			<polygon class="st13" points="167.75,349.55 164.65,340.89 164.65,348.97 167.75,356.62 			"/>
			<polygon class="st13" points="164.65,340.89 179.35,339.12 182.76,347.77 167.75,349.55 			"/>
			<polygon class="st19" points="182.76,354.85 182.76,347.77 167.75,349.55 167.75,356.62 			"/>
			<polygon class="st20" points="167.75,349.55 164.65,340.89 164.65,348.97 167.75,356.62 			"/>
			<polygon class="st21" points="164.65,340.89 179.35,339.12 182.76,347.77 167.75,349.55 			"/>
		</g>
		<g>
			<polygon class="st13" points="188.66,369.43 188.66,362.35 173.64,364.13 173.64,371.2 			"/>
			<polygon class="st13" points="173.64,364.13 170.54,355.47 170.54,363.55 173.64,371.2 			"/>
			<polygon class="st13" points="170.54,355.47 185.24,353.7 188.66,362.35 173.64,364.13 			"/>
			<polygon class="st19" points="188.66,369.43 188.66,362.35 173.64,364.13 173.64,371.2 			"/>
			<polygon class="st20" points="173.64,364.13 170.54,355.47 170.54,363.55 173.64,371.2 			"/>
			<polygon class="st21" points="170.54,355.47 185.24,353.7 188.66,362.35 173.64,364.13 			"/>
		</g>
		<g>
			<polygon class="st13" points="120.6,352.35 120.6,346.79 108.79,348.18 108.79,353.75 			"/>
			<polygon class="st13" points="108.79,348.18 106.35,341.38 106.35,347.73 108.79,353.75 			"/>
			<polygon class="st13" points="106.35,341.38 117.91,339.98 120.6,346.79 108.79,348.18 			"/>
			<polygon class="st19" points="120.6,352.35 120.6,346.79 108.79,348.18 108.79,353.75 			"/>
			<polygon class="st20" points="108.79,348.18 106.35,341.38 106.35,347.73 108.79,353.75 			"/>
			<polygon class="st21" points="106.35,341.38 117.91,339.98 120.6,346.79 108.79,348.18 			"/>
		</g>
		<g>
			<polygon class="st13" points="126.51,368.74 126.51,363.18 114.7,364.58 114.7,370.14 			"/>
			<polygon class="st13" points="114.7,364.58 112.26,357.77 112.26,364.12 114.7,370.14 			"/>
			<polygon class="st13" points="112.26,357.77 123.82,356.37 126.51,363.18 114.7,364.58 			"/>
			<polygon class="st19" points="126.51,368.74 126.51,363.18 114.7,364.58 114.7,370.14 			"/>
			<polygon class="st20" points="114.7,364.58 112.26,357.77 112.26,364.12 114.7,370.14 			"/>
			<polygon class="st21" points="112.26,357.77 123.82,356.37 126.51,363.18 114.7,364.58 			"/>
		</g>
		<g>
			<g>
				<polygon class="st13" points="253.36,335.6 253.36,309.08 234.74,311.28 234.74,337.79 				"/>
				<polygon class="st19" points="253.36,335.6 253.36,309.08 234.74,311.28 234.74,337.79 				"/>
				<polygon class="st13" points="234.74,311.28 232.32,304.82 232.32,332.65 234.74,337.79 				"/>
				<polygon class="st20" points="234.74,311.28 232.32,304.82 232.32,332.65 234.74,337.79 				"/>
				<polygon class="st13" points="232.32,304.82 250.51,302.63 253.36,309.08 234.74,311.28 				"/>
				<polygon class="st21" points="232.32,304.82 250.51,302.63 253.36,309.08 234.74,311.28 				"/>
			</g>
		</g>
		<g>
			<g>
				<g>
					<polygon class="st13" points="347.48,246.47 347.48,215.11 336.75,216.31 336.75,247.66 					"/>
					<polygon class="st19" points="347.48,246.47 347.48,215.11 336.75,216.31 336.75,247.66 					"/>
					<polygon class="st13" points="336.75,216.31 334.33,209.85 334.33,242.52 336.75,247.66 					"/>
					<polygon class="st20" points="336.75,216.31 334.33,209.85 334.33,242.52 336.75,247.66 					"/>
					<polygon class="st13" points="334.33,209.85 344.64,208.66 347.48,215.11 336.75,216.31 					"/>
					<polygon class="st21" points="334.33,209.85 344.64,208.66 347.48,215.11 336.75,216.31 					"/>
				</g>
			</g>
			<g>
				<g>
					<polygon class="st13" points="335.54,245.37 335.54,217.72 329.86,218.33 329.86,245.98 					"/>
					<polygon class="st19" points="335.54,245.37 335.54,217.72 329.86,218.33 329.86,245.98 					"/>
					<polygon class="st13" points="329.86,218.33 328.98,215.5 328.98,244.28 329.86,245.98 					"/>
					<polygon class="st20" points="329.86,218.33 328.98,215.5 328.98,244.28 329.86,245.98 					"/>
					<polygon class="st13" points="328.98,215.5 334.3,214.89 335.54,217.72 329.86,218.33 					"/>
					<polygon class="st21" points="328.98,215.5 334.3,214.89 335.54,217.72 329.86,218.33 					"/>
				</g>
			</g>
		</g>
		<g>
			<g>
				<polygon class="st13" points="275.61,332.95 275.61,306.43 257,308.62 257,335.14 				"/>
				<polygon class="st19" points="275.61,332.95 275.61,306.43 257,308.62 257,335.14 				"/>
				<polygon class="st13" points="257,308.62 254.58,302.16 254.58,329.99 257,335.14 				"/>
				<polygon class="st20" points="257,308.62 254.58,302.16 254.58,329.99 257,335.14 				"/>
				<polygon class="st13" points="254.58,302.16 272.77,299.98 275.61,306.43 257,308.62 				"/>
				<polygon class="st21" points="254.58,302.16 272.77,299.98 275.61,306.43 257,308.62 				"/>
			</g>
		</g>
		<g>
			<polygon class="st13" points="324.53,249.46 324.53,241.52 307.69,243.51 307.69,251.45 			"/>
			<polygon class="st13" points="307.69,243.51 304.22,233.81 304.22,242.87 307.69,251.45 			"/>
			<polygon class="st13" points="304.22,233.81 320.7,231.82 324.53,241.52 307.69,243.51 			"/>
			<polygon class="st19" points="324.53,249.46 324.53,241.52 307.69,243.51 307.69,251.45 			"/>
			<polygon class="st20" points="307.69,243.51 304.22,233.81 304.22,242.87 307.69,251.45 			"/>
			<polygon class="st21" points="304.22,233.81 320.7,231.82 324.53,241.52 307.69,243.51 			"/>
		</g>
		<g>
			<g id="XMLID_00000018924237117614599580000008592871986217028258_">
				<polygon id="XMLID_00000004534037803218798940000017716839248635884200_" class="st13" points="339.22,306.35 351.28,313.31 
					360.93,307.77 348.25,300.45 				"/>
				<polygon id="XMLID_00000032609732800873939840000005282270753082113690_" class="st21" points="339.22,306.35 351.28,313.31 
					360.93,307.77 348.25,300.45 				"/>
				<polygon id="XMLID_00000157275806323058983750000015303307480538251668_" class="st13" points="360.93,313.51 360.93,307.77 
					351.28,313.31 351.28,319.08 				"/>
				<polygon id="XMLID_00000109002511898334126670000005921083315169290368_" class="st19" points="360.93,313.51 360.93,307.77 
					351.28,313.31 351.28,319.08 				"/>
				<polygon id="XMLID_00000011716028883513528430000000975145824590024589_" class="st13" points="339.22,306.35 339.22,312.12 
					351.28,319.08 351.28,313.31 				"/>
				<polygon id="XMLID_00000105407742966181975880000018240479106910528896_" class="st20" points="339.22,306.35 339.22,312.12 
					351.28,319.08 351.28,313.31 				"/>
			</g>
			<g id="XMLID_00000055689601895400783160000005239102175990092971_">
				<polygon id="XMLID_00000040534739024597558790000009044581262045620358_" class="st13" points="325.73,314.3 337.79,321.26 
					347.45,315.72 334.77,308.41 				"/>
				<polygon id="XMLID_00000022558565905631946530000012465495827949845639_" class="st21" points="325.73,314.3 337.79,321.26 
					347.45,315.72 334.77,308.41 				"/>
				<polygon id="XMLID_00000053508916214104857230000010013727324917021375_" class="st13" points="347.45,321.46 347.45,315.72 
					337.79,321.26 337.79,327.03 				"/>
				<polygon id="XMLID_00000007404395779976392940000006063938756407180703_" class="st19" points="347.45,321.46 347.45,315.72 
					337.79,321.26 337.79,327.03 				"/>
				<polygon id="XMLID_00000081630713463260762030000001994754420141260966_" class="st13" points="325.73,314.3 325.73,320.07 
					337.79,327.03 337.79,321.26 				"/>
				<polygon id="XMLID_00000110454013737858506610000014287896847600774052_" class="st20" points="325.73,314.3 325.73,320.07 
					337.79,327.03 337.79,321.26 				"/>
			</g>
			<g id="XMLID_00000034087957124814881120000009242630811994848669_">
				<polygon id="XMLID_00000067930989922129181690000005155838675906163646_" class="st13" points="311.98,322.17 324.04,329.13 
					333.69,323.6 321.02,316.28 				"/>
				<polygon id="XMLID_00000130642947511607033260000001168343452661721238_" class="st21" points="311.98,322.17 324.04,329.13 
					333.69,323.6 321.02,316.28 				"/>
				<polygon id="XMLID_00000026855476436408393200000003544020448889528487_" class="st13" points="333.69,329.33 333.69,323.6 
					324.04,329.13 324.04,334.91 				"/>
				<polygon id="XMLID_00000110445008649746635040000016079472265476842902_" class="st19" points="333.69,329.33 333.69,323.6 
					324.04,329.13 324.04,334.91 				"/>
				<polygon id="XMLID_00000179641583109218995010000001703592112913785784_" class="st13" points="311.98,322.17 311.98,327.95 
					324.04,334.91 324.04,329.13 				"/>
				<polygon id="XMLID_00000039817305170306296560000006753364356056697998_" class="st20" points="311.98,322.17 311.98,327.95 
					324.04,334.91 324.04,329.13 				"/>
			</g>
		</g>
		<g id="XMLID_00000097460979178129829510000003201886378284763810_">
			<polygon id="XMLID_00000004546375624427634800000002246028669748472996_" class="st13" points="292.46,325.73 304.52,332.69 
				314.17,327.15 301.5,319.84 			"/>
			<polygon id="XMLID_00000029011294791757730090000015468743271021416087_" class="st21" points="292.46,325.73 304.52,332.69 
				314.17,327.15 301.5,319.84 			"/>
			<polygon id="XMLID_00000074399678051879781870000017954096342795015852_" class="st13" points="314.17,340.96 314.17,327.15 
				304.52,332.69 304.52,346.54 			"/>
			<polygon id="XMLID_00000071538899559637333230000015403399444578777995_" class="st19" points="314.17,340.96 314.17,327.15 
				304.52,332.69 304.52,346.54 			"/>
			<polygon id="XMLID_00000149348572489888604590000013004852141306515647_" class="st13" points="292.46,325.73 292.46,339.57 
				304.52,346.54 304.52,332.69 			"/>
			<polygon id="XMLID_00000067937902198234246120000002346784782415703969_" class="st20" points="292.46,325.73 292.46,339.57 
				304.52,346.54 304.52,332.69 			"/>
		</g>
		<g id="XMLID_00000043420709298407857730000018389580860190665388_">
			<polygon id="XMLID_00000119110341393064438290000003971352400027191231_" class="st13" points="364.56,293.26 377.64,298.15 
				387.29,292.62 373.6,287.37 			"/>
			<polygon id="XMLID_00000060748814132294937150000002062192747902629822_" class="st21" points="364.56,293.26 377.64,298.15 
				387.29,292.62 373.6,287.37 			"/>
			<polygon id="XMLID_00000042002118824679116180000004240850690766097038_" class="st13" points="387.29,298.35 387.29,292.62 
				377.64,298.15 377.64,303.93 			"/>
			<polygon id="XMLID_00000091724504749553827310000003335418389053180592_" class="st19" points="387.29,298.35 387.29,292.62 
				377.64,298.15 377.64,303.93 			"/>
			<polygon id="XMLID_00000005240272163383477820000002068806555964297389_" class="st13" points="364.56,293.26 364.56,299.03 
				377.64,303.93 377.64,298.15 			"/>
			<polygon id="XMLID_00000164486713755617936150000004718664478123307680_" class="st20" points="364.56,293.26 364.56,299.03 
				377.64,303.93 377.64,298.15 			"/>
		</g>
		<g id="XMLID_00000159470018522064065560000016755746675620101567_">
			<polygon id="XMLID_00000083781062314847745150000009700722216565909905_" class="st13" points="343.61,285.26 356.68,290.16 
				366.34,284.62 352.65,279.37 			"/>
			<polygon id="XMLID_00000146496844532475962170000000484146712093691821_" class="st21" points="343.61,285.26 356.68,290.16 
				366.34,284.62 352.65,279.37 			"/>
			<polygon id="XMLID_00000152236413667059980670000005421391063378740904_" class="st13" points="366.34,290.36 366.34,284.62 
				356.68,290.16 356.68,295.93 			"/>
			<polygon id="XMLID_00000137814279520603607740000009729609244993668253_" class="st19" points="366.34,290.36 366.34,284.62 
				356.68,290.16 356.68,295.93 			"/>
			<polygon id="XMLID_00000109000879708792785650000001523651066857509264_" class="st13" points="343.61,285.26 343.61,291.04 
				356.68,295.93 356.68,290.16 			"/>
			<polygon id="XMLID_00000036211289017018472850000009432066211853424044_" class="st20" points="343.61,285.26 343.61,291.04 
				356.68,295.93 356.68,290.16 			"/>
		</g>
		<g>
			<g>
				<polygon class="st13" points="264.26,256.56 264.26,248.2 239.82,251.08 239.82,259.44 				"/>
				<polygon class="st20" points="264.26,256.56 264.26,248.2 239.82,251.08 239.82,259.44 				"/>
				<polygon class="st13" points="239.82,251.08 234.65,236.63 234.65,246.67 239.82,259.44 				"/>
				<polygon class="st22" points="239.82,251.08 234.65,236.63 234.65,246.67 239.82,259.44 				"/>
				<polygon class="st13" points="234.65,236.63 258.55,233.76 264.26,248.2 239.82,251.08 				"/>
				<polygon class="st21" points="234.65,236.63 258.55,233.76 264.26,248.2 239.82,251.08 				"/>
			</g>
			<g>
				<polygon class="st13" points="261.12,246.12 261.12,205.34 241.98,207.59 241.98,248.37 				"/>
				<polygon class="st20" points="261.12,246.12 261.12,205.34 241.98,207.59 241.98,248.37 				"/>
				<polygon class="st13" points="241.98,207.59 237.79,195.89 237.79,238.02 241.98,248.37 				"/>
				<polygon class="st22" points="241.98,207.59 237.79,195.89 237.79,238.02 241.98,248.37 				"/>
				<polygon class="st13" points="237.79,195.89 256.5,193.64 261.12,205.34 241.98,207.59 				"/>
				<polygon class="st21" points="237.79,195.89 256.5,193.64 261.12,205.34 241.98,207.59 				"/>
			</g>
			<g>
				<polygon class="st13" points="255.15,202.71 255.15,180.48 244.71,181.71 244.71,203.94 				"/>
				<polygon class="st20" points="255.15,202.71 255.15,180.48 244.71,181.71 244.71,203.94 				"/>
				<polygon class="st13" points="244.71,181.71 242.43,175.33 242.43,198.3 244.71,203.94 				"/>
				<polygon class="st22" points="244.71,181.71 242.43,175.33 242.43,198.3 244.71,203.94 				"/>
				<polygon class="st13" points="242.43,175.33 252.63,174.1 255.15,180.48 244.71,181.71 				"/>
				<polygon class="st21" points="242.43,175.33 252.63,174.1 255.15,180.48 244.71,181.71 				"/>
			</g>
		</g>
		<g>
			<g>
				<polygon class="st13" points="144.45,315.22 144.45,250.96 125.31,253.21 125.31,317.47 				"/>
				<polygon class="st20" points="144.45,315.22 144.45,250.96 125.31,253.21 125.31,317.47 				"/>
				<polygon class="st13" points="125.31,253.21 122.51,245.02 122.51,310.63 125.31,317.47 				"/>
				<polygon class="st22" points="125.31,253.21 122.51,245.02 122.51,310.63 125.31,317.47 				"/>
				<polygon class="st13" points="122.51,245.02 141.22,242.77 144.45,250.96 125.31,253.21 				"/>
				<polygon class="st21" points="122.51,245.02 141.22,242.77 144.45,250.96 125.31,253.21 				"/>
			</g>
		</g>
		<g>
			<g>
				<g>
					<polygon class="st13" points="113.48,335.72 113.48,276.22 96.78,278.07 96.78,337.58 					"/>
					<polygon class="st20" points="113.48,335.72 113.48,276.22 96.78,278.07 96.78,337.58 					"/>
					<polygon class="st13" points="96.78,278.07 93.02,268.02 93.02,329.58 96.78,337.58 					"/>
					<polygon class="st22" points="96.78,278.07 93.02,268.02 93.02,329.58 96.78,337.58 					"/>
					<polygon class="st13" points="93.02,268.02 109.06,266.17 113.48,276.22 96.78,278.07 					"/>
					<polygon class="st21" points="93.02,268.02 109.06,266.17 113.48,276.22 96.78,278.07 					"/>
				</g>
			</g>
			<g>
				<g>
					<polygon class="st13" points="94.9,334.02 94.9,280.28 86.07,281.23 86.07,334.97 					"/>
					<polygon class="st20" points="94.9,334.02 94.9,280.28 86.07,281.23 86.07,334.97 					"/>
					<polygon class="st13" points="86.07,281.23 84.69,276.82 84.69,332.33 86.07,334.97 					"/>
					<polygon class="st22" points="86.07,281.23 84.69,276.82 84.69,332.33 86.07,334.97 					"/>
					<polygon class="st13" points="84.69,276.82 92.96,275.88 94.9,280.28 86.07,281.23 					"/>
					<polygon class="st21" points="84.69,276.82 92.96,275.88 94.9,280.28 86.07,281.23 					"/>
				</g>
			</g>
		</g>
		<g id="XMLID_00000153671204326359263700000006541121393266138534_">
			<g>
				<polygon id="XMLID_00000092433958195425198710000002397700878906592923_" class="st6" points="424.2,270.17 399.83,284.24 
					399.83,291.89 424.2,277.82 				"/>
				<polygon id="XMLID_00000121278031037231446030000010310794743125538961_" class="st23" points="424.2,270.17 399.83,284.24 
					399.83,291.89 424.2,277.82 				"/>
				<polyline id="XMLID_00000039100188030624273020000009602328484223603347_" class="st6" points="375.46,277.82 375.46,270.17 
					399.83,284.24 399.83,291.89 				"/>
				<polygon class="st14" points="375.46,270.17 399.83,284.24 399.83,291.89 375.46,277.82 				"/>
				<polygon id="XMLID_00000150091982932428983930000014062196904601181073_" class="st6" points="375.46,270.17 399.83,256.1 
					424.2,270.17 399.83,284.24 				"/>
				<polygon id="XMLID_00000144301281212277291080000015315678343010205092_" class="st24" points="375.46,270.17 399.83,256.1 
					424.2,270.17 399.83,284.24 				"/>
			</g>
			<g id="XMLID_00000029763568234643103720000015535246380304703647_">
				<polygon id="XMLID_00000096053674051628307570000003813175699531999888_" class="st6" points="424.2,268.99 399.83,283.06 
					399.83,280.72 424.2,266.65 				"/>
				<polygon id="XMLID_00000088844691271980498440000007261335104545116855_" class="st23" points="424.2,268.99 399.83,283.06 
					399.83,280.72 424.2,266.65 				"/>
				<polygon id="XMLID_00000153688294425211943430000003074129435868525238_" class="st6" points="399.83,283.06 375.46,268.99 
					375.46,266.65 399.83,280.72 				"/>
				<polygon id="XMLID_00000172425453015643016220000003292754956547789199_" class="st14" points="399.83,283.06 375.46,268.99 
					375.46,266.65 399.83,280.72 				"/>
				<polygon id="XMLID_00000138542470268359662440000000321716490534887351_" class="st6" points="375.46,266.65 399.83,252.58 
					424.2,266.65 399.83,280.72 				"/>
				<polygon id="XMLID_00000043456129179072278160000001436935684703863444_" class="st24" points="375.46,266.65 399.83,252.58 
					424.2,266.65 399.83,280.72 				"/>
			</g>
			<g id="XMLID_00000128486441970591113530000007182053654275067274_">
				<polygon id="XMLID_00000152226587757705407180000000171513755463946937_" class="st6" points="424.2,265.21 399.83,279.28 
					399.83,276.94 424.2,262.87 				"/>
				<polygon id="XMLID_00000179610231029367485300000015510702176849375422_" class="st23" points="424.2,265.21 399.83,279.28 
					399.83,276.94 424.2,262.87 				"/>
				<polygon id="XMLID_00000073690215980009219260000018197037654324983993_" class="st6" points="399.83,279.28 375.46,265.21 
					375.46,262.87 399.83,276.94 				"/>
				<polygon id="XMLID_00000016050789816217880000000009818531800495376276_" class="st14" points="399.83,279.28 375.46,265.21 
					375.46,262.87 399.83,276.94 				"/>
				<polygon id="XMLID_00000013883079989563336160000007989934258041014207_" class="st6" points="375.46,262.87 399.83,248.8 
					424.2,262.87 399.83,276.94 				"/>
				<polygon id="XMLID_00000084500626937363119710000012640727906660757376_" class="st24" points="375.46,262.87 399.83,248.8 
					424.2,262.87 399.83,276.94 				"/>
			</g>
			<g>
				<polygon id="XMLID_00000043440286820350395410000000563504204607849357_" class="st6" points="399.83,274.3 399.83,215.22 
					420.14,203.5 420.14,262.57 				"/>
				<polygon id="XMLID_00000109747385999758797270000010938098838209766830_" class="st6" points="399.83,215.22 379.52,203.5 
					379.52,262.57 399.83,274.3 				"/>
				<polygon id="XMLID_00000023246521659750293220000013337515599218378672_" class="st6" points="379.52,203.5 399.83,191.77 
					420.14,203.5 399.83,215.22 				"/>
				<polygon id="XMLID_00000147934715042113650340000004976403851751891872_" class="st7" points="379.52,203.5 399.83,191.77 
					420.14,203.5 399.83,215.22 				"/>
				<polygon id="XMLID_00000142864602494085321890000005934280098679711401_" class="st25" points="399.83,274.3 399.83,215.22 
					420.14,203.5 420.14,262.57 				"/>
			</g>
			<g>
				<polygon id="XMLID_00000032617375520670008070000013655636028529595296_" class="st6" points="399.83,212.88 399.83,163.12 
					416.08,153.52 416.08,203.5 				"/>
				<polygon id="XMLID_00000131330105134088327470000010073832247049000873_" class="st6" points="399.83,212.88 399.83,163.12 
					383.58,153.52 383.58,203.5 				"/>
				<polygon id="XMLID_00000122712651085657311970000015850350310340945580_" class="st6" points="383.58,153.52 399.83,144.25 
					416.08,153.52 399.83,163.12 				"/>
				<polygon id="XMLID_00000111185565905981145680000000868597311469906871_" class="st7" points="383.58,153.52 399.83,144.25 
					416.08,153.52 399.83,163.12 				"/>
				<polygon id="XMLID_00000068669762686648340070000014391257916623606407_" class="st25" points="399.83,212.88 399.83,163.12 
					416.08,153.52 416.08,203.5 				"/>
			</g>
			<g>
				<polygon id="XMLID_00000183213480962513126000000003988880993573017753_" class="st6" points="399.83,159.49 399.83,152.46 
					389.68,146.59 389.68,153.63 				"/>
				<polygon id="XMLID_00000128457861041230459360000002215138911074078881_" class="st6" points="409.99,153.63 409.99,146.59 
					399.83,152.46 399.83,159.49 				"/>
				<polygon id="XMLID_00000181058594096160904520000015754818889104199584_" class="st25" points="409.99,153.63 409.99,146.59 
					399.83,152.46 399.83,159.49 				"/>
				<polygon id="XMLID_00000151513476468577422080000011804002939360911241_" class="st6" points="389.68,146.59 399.83,140.73 
					409.99,146.59 399.83,152.46 				"/>
				<polygon id="XMLID_00000059989899161073402170000000146669421689945761_" class="st7" points="389.68,146.59 399.83,140.73 
					409.99,146.59 399.83,152.46 				"/>
			</g>
		</g>
	</g>
	<g>
		<path class="st6" d="M137.62,385.64c0.08,0,0.16-0.02,0.23-0.06c0.13-0.07,13.58-6.82,34.26-7.76
			c20.66-0.94,30.54,2.99,30.64,3.03c0.19,0.08,0.41,0.03,0.55-0.11c0.15-0.14,0.19-0.36,0.11-0.55l-30.41-75.15l71.1-8.29
			c0.16-0.02,0.3-0.11,0.38-0.25c0.08-0.14,0.09-0.3,0.03-0.45l-11.28-27.89l143.86-17.11c0.28-0.03,0.48-0.29,0.45-0.57
			c-0.03-0.28-0.28-0.48-0.57-0.45l-144.52,17.19c-0.16,0.02-0.3,0.11-0.38,0.25c-0.08,0.14-0.09,0.3-0.03,0.45l11.28,27.88
			l-71.1,8.29c-0.16,0.02-0.3,0.11-0.38,0.25c-0.08,0.14-0.09,0.3-0.03,0.45l30.24,74.72c-3.09-1-12.74-3.5-29.98-2.72
			c-20.91,0.95-34.54,7.8-34.68,7.87c-0.25,0.13-0.35,0.44-0.22,0.69C137.26,385.54,137.44,385.64,137.62,385.64z"/>
	</g>
</g>
<g id="Locators">
	<g id="Pin">
		<g id="XMLID_18512_">
			<g id="XMLID_18515_">
				<g id="XMLID_18641_">
					<path id="XMLID_18642_" class="st6" d="M400.87,98.61c-0.11,0.1-0.23,0.19-0.36,0.27l7.05-3.98c0,0,17.39-14.05,17.39-26.98
						v-2.95c0-12.93-8.52-28.33-19.02-34.4c-0.36-0.2-0.71-0.4-1.07-0.58c-0.36-0.17-0.71-0.35-1.06-0.5
						c-0.7-0.31-1.39-0.56-2.07-0.76c-0.34-0.1-0.67-0.19-1-0.27c-0.33-0.08-0.65-0.14-0.98-0.18c-0.33-0.05-0.64-0.09-0.96-0.11
						c-0.32-0.03-0.62-0.04-0.93-0.04c-2.05,0-3.9,0.55-5.48,1.6l-6.59,3.79c3.34-1.66,7.72-1.32,12.51,1.45
						c7.53,4.34,14.03,13.48,17.12,23.06c0,0.01,0,0.01,0,0.01c1.22,3.79,1.91,7.66,1.91,11.33v2.95
						C417.34,82.26,406.06,93.82,400.87,98.61z M388.81,51.44c0,6.07,4.25,13.44,9.5,16.48c4.67,2.68,8.54,1.06,9.35-3.58
						c-0.02-0.01-0.03-0.01-0.05-0.02c-0.18-0.07-0.37-0.14-0.55-0.22c-0.18-0.08-0.38-0.16-0.56-0.27
						c-0.19-0.09-0.38-0.19-0.57-0.31c-5.26-3.03-9.51-10.41-9.51-16.47c0-0.2,0-0.4,0.02-0.59c0-0.12,0.01-0.23,0.02-0.35
						c0.02-0.35,0.06-0.67,0.12-0.99C392.15,43.51,388.81,46.06,388.81,51.44z"/>
				</g>
			</g>
		</g>
		<path class="st8" d="M417.34,72.31v-2.95c0-3.67-0.68-7.54-1.91-11.33c0,0,0,0,0-0.01c-3.09-9.58-9.6-18.71-17.12-23.06
			c-4.79-2.76-9.17-3.11-12.51-1.45l6.59-3.79c1.58-1.05,3.43-1.6,5.48-1.6c0.31,0,0.61,0.01,0.93,0.04
			c0.32,0.02,0.63,0.06,0.96,0.11c0.33,0.04,0.65,0.1,0.98,0.18c0.33,0.07,0.66,0.16,1,0.27c0.68,0.2,1.37,0.46,2.07,0.76
			c0.35,0.15,0.7,0.33,1.06,0.5c0.36,0.18,0.71,0.38,1.07,0.58c10.5,6.07,19.02,21.47,19.02,34.4v2.95
			c0,12.93-17.39,26.98-17.39,26.98l-7.05,3.98c0.12-0.07,0.24-0.16,0.36-0.27C406.06,93.82,417.34,82.26,417.34,72.31z"/>
		<path class="st24" d="M396.58,45.12c-0.06,0.32-0.1,0.64-0.12,0.99c-0.01,0.11-0.02,0.22-0.02,0.35
			c-0.02,0.19-0.02,0.39-0.02,0.59c0,6.06,4.25,13.44,9.51,16.47c0.19,0.11,0.38,0.21,0.57,0.31c0.18,0.1,0.38,0.18,0.56,0.27
			c0.18,0.08,0.37,0.15,0.55,0.22c0.02,0.01,0.03,0.01,0.05,0.02c-0.82,4.64-4.68,6.26-9.35,3.58c-5.25-3.04-9.5-10.41-9.5-16.48
			C388.81,46.06,392.15,43.51,396.58,45.12z"/>
		<g id="XMLID_18516_" class="st2">
			<path id="XMLID_17185_" class="st26" d="M379.29,50.34c0,10.71,13.05,38.34,17.53,47.51c0.76,1.55,2.78,1.92,4.04,0.75
				c5.19-4.79,16.47-16.34,16.47-26.3v-2.94c0-12.93-8.52-28.33-19.02-34.4c-10.51-6.07-19.02-0.5-19.02,12.43V50.34z M388.8,51.44
				c0-6.07,4.26-8.52,9.51-5.49c5.25,3.03,9.51,10.41,9.51,16.47c0,6.07-4.26,8.52-9.51,5.49C393.06,64.88,388.8,57.51,388.8,51.44z
				"/>
		</g>
		<g id="XMLID_1336_">
			<path id="XMLID_1337_" class="st6" d="M379.29,50.34c0,10.71,13.05,38.34,17.53,47.51c0.76,1.55,2.78,1.92,4.04,0.75
				c5.19-4.79,16.47-16.34,16.47-26.3v-2.94c0-12.93-8.52-28.33-19.02-34.4c-10.51-6.07-19.02-0.5-19.02,12.43V50.34z M388.8,51.44
				c0-6.07,4.26-8.52,9.51-5.49c5.25,3.03,9.51,10.41,9.51,16.47c0,6.07-4.26,8.52-9.51,5.49C393.06,64.88,388.8,57.51,388.8,51.44z
				"/>
		</g>
	</g>
	<g id="Pin_1_" class="st2">
		<g id="XMLID_1519_" class="st3">
			<g id="XMLID_1520_">
				<g id="XMLID_1609_">
					<path id="XMLID_1621_" class="st13" d="M236.94,153.65v-0.97c0-1.21,0.22-2.48,0.63-3.72c0,0,0,0,0,0
						c1.02-3.15,3.15-6.15,5.63-7.58c1.57-0.91,3.01-1.02,4.11-0.48l-2.16-1.25c-0.52-0.35-1.13-0.53-1.8-0.53
						c-0.1,0-0.2,0-0.3,0.01c-0.1,0.01-0.21,0.02-0.32,0.04c-0.11,0.01-0.21,0.03-0.32,0.06c-0.11,0.02-0.22,0.05-0.33,0.09
						c-0.22,0.07-0.45,0.15-0.68,0.25c-0.11,0.05-0.23,0.11-0.35,0.16c-0.12,0.06-0.23,0.12-0.35,0.19
						c-3.45,1.99-6.25,7.05-6.25,11.3v0.97c0,4.25,5.71,8.87,5.71,8.87l2.32,1.31c-0.04-0.02-0.08-0.05-0.12-0.09
						C240.65,160.71,236.94,156.92,236.94,153.65z M243.77,144.71c0.02,0.1,0.03,0.21,0.04,0.33c0,0.04,0.01,0.07,0.01,0.11
						c0.01,0.06,0.01,0.13,0.01,0.19c0,1.99-1.4,4.42-3.13,5.41c-0.06,0.04-0.12,0.07-0.19,0.1c-0.06,0.03-0.12,0.06-0.18,0.09
						c-0.06,0.03-0.12,0.05-0.18,0.07c-0.01,0-0.01,0-0.02,0.01c0.27,1.52,1.54,2.06,3.07,1.18c1.73-1,3.12-3.42,3.12-5.42
						C246.32,145.02,245.22,144.18,243.77,144.71z"/>
				</g>
			</g>
		</g>
		<path class="st27" d="M236.94,153.65v-0.97c0-1.21,0.22-2.48,0.63-3.72c0,0,0,0,0,0c1.02-3.15,3.15-6.15,5.63-7.58
			c1.57-0.91,3.01-1.02,4.11-0.48l-2.16-1.25c-0.52-0.35-1.13-0.53-1.8-0.53c-0.1,0-0.2,0-0.3,0.01c-0.1,0.01-0.21,0.02-0.32,0.04
			c-0.11,0.01-0.21,0.03-0.32,0.06c-0.11,0.02-0.22,0.05-0.33,0.09c-0.22,0.07-0.45,0.15-0.68,0.25c-0.11,0.05-0.23,0.11-0.35,0.16
			c-0.12,0.06-0.23,0.12-0.35,0.19c-3.45,1.99-6.25,7.05-6.25,11.3v0.97c0,4.25,5.71,8.87,5.71,8.87l2.32,1.31
			c-0.04-0.02-0.08-0.05-0.12-0.09C240.65,160.71,236.94,156.92,236.94,153.65z"/>
		<path class="st27" d="M243.74,144.71c0.02,0.1,0.03,0.21,0.04,0.33c0,0.04,0.01,0.07,0.01,0.11c0.01,0.06,0.01,0.13,0.01,0.19
			c0,1.99-1.4,4.42-3.13,5.41c-0.06,0.04-0.12,0.07-0.19,0.1c-0.06,0.03-0.12,0.06-0.18,0.09c-0.06,0.03-0.12,0.05-0.18,0.07
			c-0.01,0-0.01,0-0.02,0.01c0.27,1.52,1.54,2.06,3.07,1.18c1.73-1,3.12-3.42,3.12-5.42C246.29,145.02,245.2,144.18,243.74,144.71z"
			/>
		<g id="XMLID_1335_" class="st3">
			<path id="XMLID_1345_" class="st13" d="M249.45,145.46c0-4.25-2.8-6.08-6.25-4.09c-3.45,1.99-6.25,7.05-6.25,11.3v0.97
				c0,3.27,3.71,7.07,5.41,8.64c0.42,0.38,1.08,0.26,1.33-0.25c1.47-3.01,5.76-12.09,5.76-15.61V145.46z M243.2,152.2
				c-1.73,1-3.13,0.19-3.13-1.8c0-1.99,1.4-4.42,3.13-5.41c1.73-1,3.13-0.19,3.13,1.8C246.32,148.78,244.92,151.21,243.2,152.2z"/>
		</g>
		<g id="XMLID_406_" class="st3">
			<path id="XMLID_1030_" class="st13" d="M249.45,145.46c0-4.25-2.8-6.08-6.25-4.09c-3.45,1.99-6.25,7.05-6.25,11.3v0.97
				c0,3.27,3.71,7.07,5.41,8.64c0.42,0.38,1.08,0.26,1.33-0.25c1.47-3.01,5.76-12.09,5.76-15.61V145.46z M243.2,152.2
				c-1.73,1-3.13,0.19-3.13-1.8c0-1.99,1.4-4.42,3.13-5.41c1.73-1,3.13-0.19,3.13,1.8C246.32,148.78,244.92,151.21,243.2,152.2z"/>
		</g>
		<g id="XMLID_1731_" class="st28">
			<path id="XMLID_1733_" class="st10" d="M249.45,145.46c0-4.25-2.8-6.08-6.25-4.09c-3.45,1.99-6.25,7.05-6.25,11.3v0.97
				c0,3.27,3.71,7.07,5.41,8.64c0.42,0.38,1.08,0.26,1.33-0.25c1.47-3.01,5.76-12.09,5.76-15.61V145.46z M243.2,152.2
				c-1.73,1-3.13,0.19-3.13-1.8c0-1.99,1.4-4.42,3.13-5.41c1.73-1,3.13-0.19,3.13,1.8C246.32,148.78,244.92,151.21,243.2,152.2z"/>
		</g>
	</g>
	<g id="Pin_2_" class="st2">
		<g id="XMLID_2277_" class="st3">
			<g id="XMLID_2279_">
				<g id="XMLID_2285_">
					<path id="XMLID_2343_" class="st13" d="M353.41,218.95v-0.97c0-1.21,0.22-2.48,0.63-3.72c0,0,0,0,0,0
						c1.02-3.15,3.15-6.15,5.63-7.58c1.57-0.91,3.01-1.02,4.11-0.48l-2.16-1.25c-0.52-0.35-1.13-0.53-1.8-0.53
						c-0.1,0-0.2,0-0.3,0.01c-0.1,0.01-0.21,0.02-0.32,0.04c-0.11,0.01-0.21,0.03-0.32,0.06c-0.11,0.02-0.22,0.05-0.33,0.09
						c-0.22,0.07-0.45,0.15-0.68,0.25c-0.11,0.05-0.23,0.11-0.35,0.16c-0.12,0.06-0.23,0.12-0.35,0.19
						c-3.45,1.99-6.25,7.05-6.25,11.3v0.97c0,4.25,5.71,8.87,5.71,8.87l2.32,1.31c-0.04-0.02-0.08-0.05-0.12-0.09
						C357.12,226.01,353.41,222.22,353.41,218.95z M360.24,210.01c0.02,0.1,0.03,0.21,0.04,0.32c0,0.04,0.01,0.07,0.01,0.11
						c0.01,0.06,0.01,0.13,0.01,0.19c0,1.99-1.4,4.42-3.13,5.41c-0.06,0.04-0.12,0.07-0.19,0.1c-0.06,0.03-0.12,0.06-0.18,0.09
						c-0.06,0.03-0.12,0.05-0.18,0.07c-0.01,0-0.01,0-0.02,0.01c0.27,1.52,1.54,2.06,3.07,1.18c1.73-1,3.12-3.42,3.12-5.42
						C362.79,210.32,361.69,209.48,360.24,210.01z"/>
				</g>
			</g>
		</g>
		<path class="st27" d="M353.41,218.95v-0.97c0-1.21,0.22-2.48,0.63-3.72c0,0,0,0,0,0c1.02-3.15,3.15-6.15,5.63-7.58
			c1.57-0.91,3.01-1.02,4.11-0.48l-2.16-1.25c-0.52-0.35-1.13-0.53-1.8-0.53c-0.1,0-0.2,0-0.3,0.01c-0.1,0.01-0.21,0.02-0.32,0.04
			c-0.11,0.01-0.21,0.03-0.32,0.06c-0.11,0.02-0.22,0.05-0.33,0.09c-0.22,0.07-0.45,0.15-0.68,0.25c-0.11,0.05-0.23,0.11-0.35,0.16
			c-0.12,0.06-0.23,0.12-0.35,0.19c-3.45,1.99-6.25,7.05-6.25,11.3v0.97c0,4.25,5.71,8.87,5.71,8.87l2.32,1.31
			c-0.04-0.02-0.08-0.05-0.12-0.09C357.12,226.01,353.41,222.22,353.41,218.95z"/>
		<path class="st27" d="M360.21,210.01c0.02,0.1,0.03,0.21,0.04,0.32c0,0.04,0.01,0.07,0.01,0.11c0.01,0.06,0.01,0.13,0.01,0.19
			c0,1.99-1.4,4.42-3.13,5.41c-0.06,0.04-0.12,0.07-0.19,0.1c-0.06,0.03-0.12,0.06-0.18,0.09c-0.06,0.03-0.12,0.05-0.18,0.07
			c-0.01,0-0.01,0-0.02,0.01c0.27,1.52,1.54,2.06,3.07,1.18c1.73-1,3.12-3.42,3.12-5.42C362.76,210.32,361.66,209.48,360.21,210.01z
			"/>
		<g id="XMLID_2271_" class="st3">
			<path id="XMLID_2273_" class="st13" d="M365.92,210.76c0-4.25-2.8-6.08-6.25-4.09c-3.45,1.99-6.25,7.05-6.25,11.3v0.97
				c0,3.27,3.71,7.07,5.41,8.64c0.42,0.38,1.08,0.26,1.33-0.25c1.47-3.01,5.76-12.09,5.76-15.61V210.76z M359.67,217.5
				c-1.73,1-3.13,0.19-3.13-1.8c0-1.99,1.4-4.42,3.13-5.41s3.13-0.19,3.13,1.8C362.79,214.08,361.39,216.51,359.67,217.5z"/>
		</g>
		<g id="XMLID_2264_" class="st3">
			<path id="XMLID_2267_" class="st13" d="M365.92,210.76c0-4.25-2.8-6.08-6.25-4.09c-3.45,1.99-6.25,7.05-6.25,11.3v0.97
				c0,3.27,3.71,7.07,5.41,8.64c0.42,0.38,1.08,0.26,1.33-0.25c1.47-3.01,5.76-12.09,5.76-15.61V210.76z M359.67,217.5
				c-1.73,1-3.13,0.19-3.13-1.8c0-1.99,1.4-4.42,3.13-5.41s3.13-0.19,3.13,1.8C362.79,214.08,361.39,216.51,359.67,217.5z"/>
		</g>
		<g id="XMLID_2097_" class="st28">
			<path id="XMLID_2098_" class="st10" d="M365.92,210.76c0-4.25-2.8-6.08-6.25-4.09c-3.45,1.99-6.25,7.05-6.25,11.3v0.97
				c0,3.27,3.71,7.07,5.41,8.64c0.42,0.38,1.08,0.26,1.33-0.25c1.47-3.01,5.76-12.09,5.76-15.61V210.76z M359.67,217.5
				c-1.73,1-3.13,0.19-3.13-1.8c0-1.99,1.4-4.42,3.13-5.41s3.13-0.19,3.13,1.8C362.79,214.08,361.39,216.51,359.67,217.5z"/>
		</g>
	</g>
</g>
<g id="Arrow_1_" class="st2">
	<g id="Arrow" class="st3">
		<path id="XMLID_18999_" class="st13" d="M470.89,439.42L470.89,439.42l0-8.78l-65.53-15.07v8.77l0.01,0.01
			c0.01,0.19,0.1,0.43,0.3,0.72l25.52,35.78c0.63,0.88,1.3,0.73,1.5-0.33l3.23-16.79c0.2-1.06,1.24-1.98,2.32-2.04l31.83-2.04
			C470.61,439.61,470.88,439.53,470.89,439.42z"/>
		<path id="XMLID_965_" class="st8" d="M470.89,439.42L470.89,439.42l0-8.78l-65.53-15.07v8.77l0.01,0.01
			c0.01,0.19,0.1,0.43,0.3,0.72l25.52,35.78c0.63,0.88,1.3,0.73,1.5-0.33l3.23-16.79c0.2-1.06,1.24-1.98,2.32-2.04l31.83-2.04
			C470.61,439.61,470.88,439.53,470.89,439.42z"/>
		<path class="st25" d="M431.74,461.35c0.43,0.2,0.81-0.08,0.95-0.83l3.23-16.79c0.08-0.39,0.27-0.77,0.53-1.09v-12.33l-4.72,6.9
			V461.35z"/>
		<path id="XMLID_18998_" class="st13" d="M432.69,451.74l3.23-16.79c0.2-1.06,1.24-1.98,2.32-2.04l31.83-2.04
			c1.08-0.07,1.1-0.33,0.05-0.58l-63.68-15.14c-1.05-0.25-1.39,0.26-0.77,1.14l25.52,35.78
			C431.81,452.95,432.49,452.8,432.69,451.74z"/>
	</g>
</g>
</svg>
